<?xml version="1.0" encoding="UTF-8"?>
<svg id="Capa_1" data-name="Capa 1" xmlns="http://www.w3.org/2000/svg" viewBox="0 0 472.08 472.08">
  <defs>
    <style>
      .cls-1 {
        fill: #e31e25;
      }

      .cls-2 {
        fill: #231f20;
      }

      .cls-3 {
        fill: #fefefe;
      }
    </style>
  </defs>
  <path class="cls-2" d="M231.24.03c16.21.11,32.01.97,48.02,3.91,98.16,18.04,175.32,97.56,190.14,196.39,12.81,85.39-21.24,169.94-88.98,222.4-99.82,77.31-242.87,61.78-324.17-34.17-73.6-86.86-74.73-214.55-2.27-302.5C97.31,33.47,159.24,3.35,227.4.03c1.26-.06,2.57,0,3.84,0h0ZM166.96,443.52c58.48,19.35,123.64,12.86,176.95-17.71,65.83-37.75,107.54-105.5,110.41-181.84,4.87-129.26-101.24-234.04-230.4-227.39C110.36,22.43,18.62,116.24,16.54,230.29c-.13,7.26,1.89,12.74,4.32,19.45,32,88.22,135.82,128.61,219.26,84.24,9.43-5.01,17.32-10.72,25.69-17.26.56-.43,1.23-1,1.89-1.23-21.73,21.35-49.38,36.6-79.15,43.44-34.93,8.03-71.5,4.65-104.27-9.68-20.38-8.91-38.74-21.88-54.05-37.96,7.1,19.19,17.07,38.34,29.4,54.7.86,1.14,3.28,4.51,4.25,5.11,2.88,1.79,11.27,4.19,14.86,5.29,71.6,22.04,148.89-.45,197.73-56.46,3.71-4.26,6.86-8.93,10.44-13.25.15-.18.7-.81.94-.79-27.07,46.52-72.37,82.42-124.01,97.92-18.33,5.5-37.45,8.37-56.61,9l9.71,6.72c7.84,4.85,15.76,9.7,24.22,13.4,59.41-15.47,111.18-54.41,143.94-106.04-.68,2.06-1.89,4.01-2.96,5.92-24.38,43.66-61.55,80.01-104.71,104.99l-10.47,5.72h0Z"/>
  <path class="cls-3" d="M166.96,443.52l10.47-5.72c43.15-24.98,80.32-61.33,104.71-104.99,1.07-1.91,2.28-3.86,2.96-5.92-32.76,51.63-84.53,90.57-143.94,106.04-8.47-3.71-16.38-8.55-24.22-13.4l-9.71-6.72c19.16-.64,38.28-3.5,56.61-9,51.64-15.49,96.95-51.39,124.01-97.92-.24-.01-.79.61-.94.79-3.58,4.32-6.73,8.99-10.44,13.25-48.84,56.01-126.13,78.49-197.73,56.46-3.59-1.11-11.98-3.51-14.86-5.29-.97-.6-3.39-3.96-4.25-5.11-12.33-16.35-22.3-35.51-29.4-54.7,15.31,16.08,33.67,29.05,54.05,37.96,32.78,14.33,69.35,17.71,104.27,9.68,29.77-6.85,57.42-22.1,79.15-43.44-.66.22-1.34.79-1.89,1.23-8.37,6.54-16.26,12.25-25.69,17.26-83.44,44.37-187.26,3.98-219.26-84.24-2.43-6.71-4.46-12.2-4.32-19.45C18.62,116.24,110.36,22.43,223.92,16.58c129.17-6.65,235.27,98.13,230.4,227.39-2.88,76.34-44.58,144.09-110.41,181.84-53.31,30.57-118.47,37.07-176.95,17.71ZM50.61,256.81c34.8,71.84,123.58,99.49,193.26,59.32,40.39-23.29,66.95-66.45,68.92-113.32,1.28,0,2.56,0,3.84,0,3.12-.02,6.24.02,9.36,0-.4,2.87-.13,5.76-.24,8.64-.26,6.7-.77,13.96-1.44,20.64-.73,7.25-1.9,14.83-3.12,22.08-10.78,64-40.65,124.18-84.31,171.83-2.11,2.3-5.42,5.11-7.2,7.43-.18.24-.47.3-.36.72,47.86,1.55,94.93-14.54,131.81-44.64,13.18-10.76,24.05-22.08,34.19-35.75,4.96-6.69,9.33-13.37,13.43-20.64,4.43-7.84,7.92-15.15,11.27-23.52,33.29-83.19,7.46-177.37-62.98-231.82-50.26-38.85-116.96-51.38-178.1-33.01-71.69,21.54-126.88,83.73-139.29,157.74-1.62,9.68-1.79,13.92.28,23.57,2.32,10.78,5.89,20.83,10.68,30.71v.02ZM287.97,305.29v.24c.16-.08.16-.16,0-.24ZM286.05,325.21v.24c.16-.08.16-.16,0-.24ZM285.82,325.69c-.2.2-.57.66-.48.95.2-.2.57-.66.48-.95Z"/>
  <path class="cls-2" d="M420.03,309.61c-6.85-8.29-8.74-20.55-5.45-30.77,2.48-7.7,8.6-14.16,12.64-21.07-9.06,1.61-17.57,5.42-26.96,4.29-19.59-2.37-32.81-20.97-29.1-40.34,1.09-5.71,3.61-11.55,4.97-17.23-.37-.09-.52.15-.79.29-5.42,2.85-10.53,7.21-16.16,9.76-11.08,5.02-23.39,3.47-33.43-3.09.11-2.88-.16-5.77.24-8.64-3.12.02-6.24-.02-9.36,0l-1.92-3.6c2.29.18,4.54.31,6.85.25,1.06-.03,4.66-.14,5.4-.36.59-.18,4.05-2.61,4.77-3.15,1.45-1.1,2.7-2.44,4.07-3.62-1.32-3.67-3.12-7.15-4.47-10.81-2.99-8.14-2.68-13.55-3.18-22.02-.46-7.8-.7-15.67-1.2-23.52-.41-6.52-.72-18.8-5.04-23.75-1.78-2.04-2.45-2.55-4.43-.37-3.89,4.28-4.42,12.03-4.91,17.64-.97,11.06-.97,22.27-1.68,33.35l-.72,8.52c-.03-.24-.48-.83-.24-1.32-.49-.49-.48.2-.72.47-6.37,7.26-10.75,15.32-19.67,19.93-13.76,7.12-31.01,3.85-41.15-7.8-6.04-6.94-7.72-16.12-11.51-24.24-3.74,8.07-5.46,17.23-11.4,24.11-11.35,13.14-31.27,15.56-45.41,5.36-6.35-4.58-10.53-11.85-15.69-17.65-.14-.16,0-.46-.55-.31-.87,8.31.08,16.95-2.81,24.9-6.72,18.47-28.04,27.33-45.97,18.98-5.61-2.61-10.8-7.53-16.09-10.06-.29-.14-.49-.31-.85-.22,1.05,5.79,3.39,11.51,4.44,17.27,4.1,22.47-14.98,42.64-37.64,39.57-4.78-.65-9.55-2.7-14.3-3.57-4.79-9.89-8.36-19.94-10.68-30.71-2.07-9.64-1.9-13.89-.28-23.57,12.42-74.01,67.61-136.2,139.29-157.74,61.14-18.37,127.83-5.84,178.1,33.01,70.43,54.44,96.27,148.63,62.98,231.82h.01ZM171.27,58.83c-.63-.05-.4-.03-.47.36-2.08,11.12-2.8,22.77-4.97,33.91-1.57,6.1-6.36,10.78-12.5,12.21l-34.11,4.99c0,.19.66.29.87.33,10.7,2.14,23.05,2.32,33.48,4.9,6.09,1.51,10.9,6.28,12.31,12.41l4.92,34.08c.61-.3.57-1.44.68-2.08,1.75-10.2,2.25-22.45,4.72-32.24,1.5-5.98,6.34-10.69,12.31-12.17,10.44-2.58,22.78-2.76,33.48-4.9.21-.04.88-.14.87-.33l-34.31-5.04c-6.63-1.59-11.24-6.68-12.6-13.31l-4.67-33.13h0ZM152.32,147.38c-6.51-1.17-13.3-.74-18.6-5.28-3.52-3.01-5.01-6.48-5.83-10.97-.56-3.09-.89-6.31-1.24-9.44-.48.1-.41.49-.47.84-1.32,6.82-.58,13.37-5.99,18.73s-12.72,4.78-19.68,6.23c8.61,1.49,17.17,1.04,22.17,9.5,2.84,4.81,2.48,10.17,3.5,15.46.07.35,0,.74.47.84.94-6.29.72-13.26,5.03-18.37,5.28-6.25,11.6-5.93,19.04-7.11.39-.06,1.44-.09,1.6-.44h0Z"/>
  <path class="cls-1" d="M50.61,256.81c4.75.87,9.52,2.92,14.3,3.57,22.66,3.06,41.73-17.1,37.64-39.57-1.05-5.77-3.39-11.48-4.44-17.27.36-.09.56.08.85.22,5.29,2.53,10.48,7.45,16.09,10.06,17.93,8.35,39.25-.51,45.97-18.98,2.89-7.96,1.94-16.6,2.81-24.9.56-.16.41.15.55.31,5.16,5.79,9.34,13.07,15.69,17.65,14.13,10.2,34.06,7.78,45.41-5.36,5.94-6.88,7.66-16.03,11.4-24.11,3.79,8.11,5.47,17.3,11.51,24.24,10.14,11.65,27.39,14.92,41.15,7.8,8.92-4.61,13.3-12.67,19.67-19.93.23-.27.23-.96.72-.47-.24.49.21,1.08.24,1.32.37,3.31-1.71,8.42-2.93,11.58s-2.84,6.04-3.79,9.16c.07.5,1.58,1.86,2.05,2.29,1.01.91,6.16,4.67,7.18,4.82.62.09,1.39-.06,2.05,0l1.92,3.6h-3.84c-1.97,46.87-28.53,90.03-68.92,113.32-69.68,40.18-158.47,12.52-193.26-59.32l-.02-.02Z"/>
  <path class="cls-1" d="M395.32,353.77c-10.13,13.67-21.01,24.99-34.19,35.75-36.88,30.1-83.95,46.19-131.81,44.64-.11-.42.17-.48.36-.72,1.78-2.32,5.09-5.13,7.2-7.43,43.67-47.66,73.53-107.83,84.31-171.83,23.13,13.82,43.62,33.01,57.13,56.48,7.74,13.43,13.43,28.02,16.99,43.12h.01Z"/>
  <path class="cls-1" d="M325.75,211.46c10.04,6.56,22.35,8.1,33.43,3.09,5.62-2.55,10.73-6.9,16.16-9.76.27-.14.42-.38.79-.29-1.36,5.68-3.87,11.52-4.97,17.23-3.71,19.37,9.52,37.97,29.1,40.34,9.39,1.14,17.89-2.67,26.96-4.29-4.04,6.9-10.17,13.37-12.64,21.07-3.29,10.21-1.4,22.48,5.45,30.77-3.35,8.37-6.85,15.68-11.27,23.52-14.57-42.65-44.95-79.34-84.44-101.03.67-6.68,1.18-13.93,1.44-20.64h-.01Z"/>
  <path class="cls-2" d="M408.75,333.13c-4.1,7.27-8.47,13.94-13.43,20.64-3.56-15.1-9.25-29.69-16.99-43.12-13.52-23.46-34-42.65-57.13-56.48,1.22-7.25,2.39-14.83,3.12-22.08,39.49,21.7,69.87,58.39,84.44,101.03h-.01Z"/>
  <path class="cls-2" d="M285.82,325.69c.09.29-.28.75-.48.95-.09-.29.28-.75.48-.95Z"/>
  <path class="cls-2" d="M287.97,305.29c.16.08.16.16,0,.24v-.24Z"/>
  <path class="cls-2" d="M286.05,325.21c.16.08.16.16,0,.24v-.24Z"/>
  <path class="cls-3" d="M314.72,199.22c-.66-.05-1.43.1-2.05,0-1.02-.15-6.17-3.91-7.18-4.82-.48-.43-1.98-1.79-2.05-2.29.95-3.12,2.61-6.09,3.79-9.16s3.31-8.28,2.93-11.58l.72-8.52c.71-11.08.71-22.3,1.68-33.35.49-5.61,1.02-13.36,4.91-17.64,1.98-2.18,2.66-1.67,4.43.37,4.32,4.96,4.63,17.23,5.04,23.75.5,7.84.74,15.71,1.2,23.52.5,8.47.19,13.88,3.18,22.02,1.35,3.66,3.15,7.14,4.47,10.81-1.37,1.19-2.62,2.52-4.07,3.62-.71.54-4.18,2.98-4.77,3.15-.73.22-4.33.33-5.4.36-2.31.06-4.55-.07-6.85-.25h.02Z"/>
  <path class="cls-3" d="M171.27,58.83l4.67,33.13c1.36,6.63,5.97,11.72,12.6,13.31l34.31,5.04c0,.19-.66.29-.87.33-10.7,2.14-23.04,2.32-33.48,4.9-5.96,1.47-10.8,6.19-12.31,12.17-2.46,9.79-2.96,22.04-4.72,32.24-.11.64-.07,1.78-.68,2.08l-4.92-34.08c-1.41-6.13-6.22-10.9-12.31-12.41-10.43-2.58-22.78-2.76-33.48-4.9-.21-.04-.88-.14-.87-.33l34.11-4.99c6.14-1.43,10.93-6.11,12.5-12.21,2.16-11.14,2.89-22.8,4.97-33.91.07-.39-.16-.42.47-.36h0Z"/>
  <path class="cls-3" d="M152.32,147.38c-.15.35-1.2.38-1.6.44-7.44,1.18-13.76.86-19.04,7.11-4.31,5.1-4.09,12.07-5.03,18.37-.48-.1-.41-.49-.47-.84-1.02-5.29-.66-10.65-3.5-15.46-5-8.46-13.56-8.01-22.17-9.5,6.96-1.45,14.24-.85,19.68-6.23s4.67-11.9,5.99-18.73c.07-.35,0-.74.47-.84.35,3.12.68,6.35,1.24,9.44.82,4.49,2.31,7.95,5.83,10.97,5.3,4.53,12.08,4.11,18.6,5.28h0Z"/>
  <path class="cls-2" d="M309.97,224.53c-1.42,6.83-3.38,13.95-5.82,20.49-13.36-5.72-27.88-10.77-42.31-12.96-61.54-9.33-129,17.1-161.56,71.04-.73,1.2-2.27,4.68-2.97,5.43-.44.48-1.39.67-2.03.73-5.73-3.88-10.56-8-15.59-12.71,20.71-32.66,51.04-58.68,86.84-73.51,45.13-18.69,98.75-18.45,143.44,1.5Z"/>
</svg>